<?xml version="1.0" encoding="utf-8"?>
<!-- Generator: Adobe Illustrator 21.1.0, SVG Export Plug-In . SVG Version: 6.00 Build 0)  -->
<svg version="1.1" id="Layer_1" xmlns="http://www.w3.org/2000/svg" xmlns:xlink="http://www.w3.org/1999/xlink" x="0px" y="0px"
	 viewBox="0 0 1600 1200" enable-background="new 0 0 1600 1200" xml:space="preserve">
<g>
	<g>
		<path fill="#ED1651" d="M795.465,504.085c-3.118-5.357-26.414-7.508-26.414-7.508c59.075-1.858,61.395,33.214,61.395,33.214
			c25.728,11.851,14.027,34.777,14.027,34.777c-0.475-2.292-1.123-4.397-1.896-6.346c-0.516-0.522-18.973-19.03-37.031-11.518
			c-10.619,4.811-18.01,15.495-18.01,27.912c0,16.92,13.716,30.636,30.636,30.636c3.702,0,7.246-0.664,10.531-1.867l37.071-21.403
			v-75.949L800,468.059l-65.774,37.975v10.556c11.391-9.57,26.083-15.338,42.125-15.338
			C783,501.252,789.418,502.244,795.465,504.085z"/>
		<polygon fill="#A70A37" points="728.33,525.379 742.39,517.82 742.39,504.667 806.341,467.173 798.933,465.51 744.356,493.177 
			728.33,503.155 		"/>
		<path fill="#A70A37" d="M800,547.754c0,0-8.979,36.586,9.517,44.146c23.846,9.745,48.478-10.885,50.443-13.909l0.101-79.22
			l10.885,10.684l5.644,40.114l-7.862,34.47c0,0-4.636,9.728-8.869,11.516c-4.233,1.788-26.205,10.456-27.415,11.262
			c-1.209,0.806-11.893,1.561-13.506,1.183c-1.613-0.377-12.095-1.587-13.506-1.587c-1.411,0-12.095-2.62-12.095-2.62
			l-10.482-22.375l4.032-28.221L800,547.754z"/>
		<path fill="#81806E" d="M741.832,586.375c-1.226-4.011-1.887-8.269-1.887-12.682c0-17.703,10.614-32.925,25.824-39.655
			c-12.309,2.049-18.601,6.195-18.601,6.195c15.09-16.004,37.18-11.743,48.226-8.171c2.282,0.663,4.485,1.509,6.595,2.519
			c0.147,0.068,0.223,0.105,0.223,0.105c-10.159,1.644-19.524,6.411-26.944,13.831c-9.334,9.334-14.475,21.745-14.475,34.945
			c0,5.235,0.821,10.365,2.404,15.248l16.09,9.29c-5.354-6.738-8.555-15.263-8.555-24.538c0-20.176,15.134-36.814,34.669-39.189
			v-0.001c0,0,20.195-3.788,32.345,5.477c-6.753-8.657-16.208-12.125-20.815-13.364c-1.374,1.987-3.668,3.29-6.268,3.29
			c-4.206,0-7.617-3.41-7.617-7.617c0-2.797,1.508-5.24,3.755-6.565l-0.037,0.009c1.306-0.774,3.207-1.379,5.792-0.983
			c0,0-4.167-2.515-8.607-0.336c-8.403-6.455-18.796-8.028-24.568-8.373c-1.005-0.046-2.016-0.07-3.032-0.07
			c-9.357,0-18.254,1.964-26.306,5.498c-1.007,0.47-8.413,4.089-15.819,12.261v48.483L741.832,586.375z"/>
		<path fill="#57574B" d="M799.581,610.732L799.581,610.732c-0.022-0.005-0.043-0.012-0.065-0.018
			c-0.023-0.007-0.045-0.013-0.068-0.019c-0.588-0.159-1.142-0.342-1.662-0.539c-0.192-0.07-0.377-0.139-0.552-0.207
			c0-0.003,0-0.007,0-0.01c-1.429-0.594-2.56-1.275-3.349-1.821c-0.007,0.002-0.015,0.001-0.022,0.004
			c-0.093-0.071-0.187-0.144-0.28-0.217c-0.643-0.467-0.99-0.793-0.99-0.793l0.001-0.001c-5.234-4.355-10.322-11.054-13.326-21.365
			c0,0-3.153,13.882,5.196,25.242L800,619.958l17.055-9.847C809.742,612.612,803.56,611.856,799.581,610.732z"/>
		<path fill="#57574B" d="M775.268,548.517c7.42-7.42,16.785-12.186,26.944-13.831c0,0-0.076-0.037-0.223-0.105
			c-2.11-1.01-4.313-1.857-6.595-2.519c-11.046-3.572-33.136-7.834-48.226,8.171c0,0,6.292-4.147,18.601-6.195
			c-15.21,6.731-25.824,21.952-25.824,39.655c0,4.413,0.661,8.67,1.887,12.682l21.365,12.335
			c-1.582-4.883-2.404-10.013-2.404-15.248C760.794,570.261,765.934,557.851,775.268,548.517z"/>
		<path fill="#D9AD10" d="M816.931,536.385c0,0-2.842,6.793-4.289,7.595l6.468,0.658c0,0,3.619-0.208,6.242,0.733
			c2.624,0.941,7.192,2.162,8.006,2.66c0.814,0.498,3.781,1.946,5.199,2.804s2.265,0.272,2.265,0.272s-1.312-3.984-1.945-4.344
			s-5.926-4.431-7.871-5.788c-1.945-1.357-5.79-4.011-7.464-4.493c-1.674-0.482-3.393-1.161-4.75-1.025
			C817.437,535.592,816.931,536.385,816.931,536.385z"/>
		<path fill="#57574B" d="M802.213,521.192c0,0-11.977,14.246,3.524,21.712l9.469-5.669l6.031-10.675c0,0-6.152-5.187-6.876-5.307
			S802.213,521.192,802.213,521.192z"/>
		<polygon fill="#27002C" points="817.859,535.439 813.275,543.749 800,545.317 816.653,535.439 		"/>
		<path fill="#27002C" d="M800,455.106l-76.992,44.452v29.158v14.496v6.085v2.215v36.949l33.658,19.432l10.344,5.972L800,632.911
			l76.992-44.451v-88.903L800,455.106z M734.226,581.983V533.5c7.406-8.172,14.812-11.792,15.819-12.261
			c8.052-3.534,16.949-5.498,26.306-5.498c1.016,0,2.027,0.025,3.032,0.07c5.772,0.345,16.164,1.919,24.568,8.373
			c4.44-2.179,8.607,0.336,8.607,0.336c-2.585-0.396-4.486,0.209-5.792,0.983l0.037-0.009c-2.247,1.324-3.755,3.768-3.755,6.565
			c0,4.207,3.41,7.617,7.617,7.617c2.599,0,4.893-1.303,6.268-3.29c4.607,1.238,14.062,4.707,20.815,13.364
			c-11.957-9.41-24.524-8.668-31.166-7.507l-1.674,0.271c-19.535,2.374-34.175,20.773-34.175,40.949
			c0,9.275,3.201,17.8,8.555,24.538l-16.09-9.29l-21.365-12.335L734.226,581.983z M784.465,610.989
			c-8.349-11.36-5.196-25.242-5.196-25.242c3.005,10.311,8.092,17.01,13.326,21.365l-0.001,0.001c0,0,0.346,0.326,0.99,0.793
			c0.093,0.072,0.187,0.146,0.28,0.217c0.007-0.002,0.015-0.002,0.022-0.004c0.789,0.546,1.92,1.227,3.349,1.821
			c0,0.003,0,0.007,0,0.01c0.175,0.068,0.36,0.137,0.552,0.207c0.521,0.197,1.074,0.38,1.662,0.539
			c0.023,0.007,0.045,0.013,0.068,0.019c0.022,0.006,0.042,0.013,0.065,0.019l0-0.001c3.979,1.124,10.16,1.88,17.474-0.621
			L800,619.958L784.465,610.989z M865.774,581.983l-37.071,21.403c-3.285,1.203-6.829,1.867-10.531,1.867
			c-16.92,0-30.636-13.716-30.636-30.636c0-12.417,7.391-23.101,18.01-27.912c18.058-7.512,36.515,10.996,37.031,11.518
			c0.773,1.949,1.421,4.054,1.896,6.346c0,0,11.7-22.927-14.027-34.777c0,0-2.32-35.072-61.395-33.214
			c0,0,23.296,2.151,26.414,7.508c-6.047-1.841-12.465-2.833-19.114-2.833c-16.042,0-30.734,5.768-42.125,15.338v-10.556
			L800,468.059l65.774,37.975V581.983z"/>
		<circle fill="#FFFFFF" cx="810.863" cy="531.8" r="3.07"/>
		<path fill="#FFCA08" d="M816.931,536.385l8.708-3.552c0,0,15.862,7.298,13.751,19.36c0,0-5.602-8.926-12.002-10.253
			s-11.001-4.307-11.001-4.307L816.931,536.385z"/>
		<path fill="#27002C" d="M734.235,643.906c2.27,4.504,29.89,8.063,63.636,8.063s61.366-3.559,63.636-8.063H734.235z"/>
	</g>
	<g>
		<path fill="#27002C" d="M660.951,691.782c2.531,2.449,3.797,5.458,3.797,9.027c0,1.702-0.332,3.321-0.996,4.856
			c-0.664,1.536-1.567,2.875-2.708,4.016c-1.142,1.141-2.481,2.045-4.015,2.708c-1.536,0.665-3.155,0.996-4.856,0.996h-23.409
			v-43.207h23.409c1.66,0,3.269,0.333,4.825,0.996c1.557,0.665,2.905,1.567,4.047,2.708c1.141,1.142,2.044,2.481,2.708,4.016
			c0.663,1.536,0.996,3.155,0.996,4.857C664.748,686.283,663.482,689.291,660.951,691.782z M652.172,677.4h-16.249v10.833h16.249
			c0.706,0,1.39-0.145,2.055-0.436c0.663-0.289,1.245-0.684,1.743-1.183c0.498-0.498,0.882-1.079,1.152-1.743
			c0.27-0.663,0.405-1.37,0.405-2.116c0-0.706-0.135-1.39-0.405-2.055c-0.27-0.663-0.654-1.245-1.152-1.743
			c-0.498-0.498-1.08-0.881-1.743-1.152C653.562,677.536,652.878,677.4,652.172,677.4z M652.172,706.163
			c0.706,0,1.39-0.134,2.055-0.404c0.663-0.27,1.245-0.654,1.743-1.152c0.498-0.498,0.882-1.079,1.152-1.743
			c0.27-0.663,0.405-1.348,0.405-2.054c0-0.705-0.135-1.39-0.405-2.054c-0.27-0.664-0.644-1.245-1.121-1.743
			c-0.477-0.498-1.048-0.892-1.712-1.183c-0.664-0.29-1.369-0.436-2.117-0.436h-16.249v10.771H652.172z"/>
		<path fill="#27002C" d="M705.154,706.163h-19.86l-3.673,7.222h-8.031l21.603-43.207l21.603,43.207h-8.031L705.154,706.163z
			 M688.842,699.004h12.7l-6.35-12.7L688.842,699.004z"/>
		<path fill="#27002C" d="M714.678,670.178h36.047v7.222h-14.381v35.985h-7.222V677.4h-14.444V670.178z"/>
		<path fill="#27002C" d="M791.94,670.178v7.222h-21.604v10.833h21.604v7.159h-21.604v10.771h21.604v7.222h-28.763v-43.207H791.94z"
			/>
		<path fill="#27002C" d="M804.39,670.178h7.159v35.985h21.604v7.222H804.39V670.178z"/>
		<path fill="#27002C" d="M874.366,670.178v7.222h-21.604v10.833h21.604v7.159h-21.604v10.771h21.604v7.222h-28.763v-43.207H874.366
			z"/>
		<path fill="#27002C" d="M922.801,695.392c0,4.98-1.765,9.236-5.292,12.763c-3.57,3.486-7.824,5.229-12.763,5.229
			c-4.898,0-9.131-1.743-12.7-5.229c-3.486-3.569-5.229-7.823-5.229-12.763v-25.214h7.159v25.214c0,2.989,1.037,5.521,3.113,7.595
			c2.117,2.117,4.669,3.175,7.657,3.175c2.989,0,5.52-1.058,7.595-3.175c2.158-2.117,3.238-4.648,3.238-7.595v-25.214h7.222V695.392
			z"/>
		<path fill="#27002C" d="M962.956,713.385l-8.342-14.381h-12.203v14.381h-7.159v-43.207h21.603c3.943,0,7.325,1.412,10.148,4.234
			c2.822,2.823,4.234,6.205,4.234,10.148c0,2.988-0.851,5.707-2.552,8.155c-1.661,2.407-3.778,4.13-6.35,5.168l8.903,15.502H962.956
			z M956.854,677.4h-14.444v14.319l14.444,0.063c1.95,0,3.632-0.705,5.043-2.117c1.411-1.41,2.117-3.112,2.117-5.105
			c0-1.95-0.706-3.631-2.117-5.043C960.487,678.106,958.805,677.4,956.854,677.4z"/>
	</g>
	<g>
		<path fill="#79757A" d="M657.589,723.737h3.506v21.157h-3.506V723.737z"/>
		<path fill="#79757A" d="M677.099,723.707l14.084,12.682v-12.682h3.536v21.156v-0.03v0.061l-14.114-12.682v12.651h-3.506V723.707z"
			/>
		<path fill="#79757A" d="M710.724,723.707l14.084,12.682v-12.682h3.536v21.156v-0.03v0.061l-14.114-12.682v12.651h-3.506V723.707z"
			/>
		<path fill="#79757A" d="M754.927,723.737c2.927,0,5.416,1.037,7.469,3.109c2.093,2.073,3.139,4.563,3.139,7.469
			c0,2.947-1.047,5.437-3.139,7.469c-2.053,2.073-4.543,3.109-7.469,3.109c-2.927,0-5.417-1.037-7.469-3.109
			c-2.073-2.053-3.109-4.543-3.109-7.469c0-2.906,1.037-5.396,3.109-7.469C749.49,724.774,751.98,723.737,754.927,723.737z
			 M754.927,727.274c-1.931,0-3.598,0.691-5,2.073c-1.361,1.382-2.042,3.038-2.042,4.969c0,1.931,0.68,3.598,2.042,5
			c1.402,1.361,3.069,2.043,5,2.043s3.587-0.681,4.969-2.043c1.382-1.402,2.073-3.068,2.073-5c0-1.931-0.691-3.587-2.073-4.969
			C758.514,727.965,756.858,727.274,754.927,727.274z"/>
		<path fill="#79757A" d="M781.358,723.737l6.646,13.261l6.646-13.261h3.932l-10.578,21.157l-10.578-21.157H781.358z"/>
		<path fill="#79757A" d="M819.861,741.359h-9.725l-1.799,3.536h-3.932l10.578-21.157l10.578,21.157h-3.932L819.861,741.359z
			 M811.874,737.853h6.219l-3.109-6.219L811.874,737.853z"/>
		<path fill="#79757A" d="M834.433,723.737h17.651v3.537h-7.043v17.62h-3.536v-17.62h-7.073V723.737z"/>
		<path fill="#79757A" d="M868.088,723.737h3.506v21.157h-3.506V723.737z"/>
		<path fill="#79757A" d="M898.177,723.737c2.927,0,5.416,1.037,7.469,3.109c2.093,2.073,3.139,4.563,3.139,7.469
			c0,2.947-1.047,5.437-3.139,7.469c-2.053,2.073-4.543,3.109-7.469,3.109c-2.927,0-5.417-1.037-7.469-3.109
			c-2.073-2.053-3.109-4.543-3.109-7.469c0-2.906,1.037-5.396,3.109-7.469C892.74,724.774,895.229,723.737,898.177,723.737z
			 M898.177,727.274c-1.931,0-3.598,0.691-5,2.073c-1.361,1.382-2.042,3.038-2.042,4.969c0,1.931,0.68,3.598,2.042,5
			c1.402,1.361,3.069,2.043,5,2.043s3.587-0.681,4.969-2.043c1.382-1.402,2.073-3.068,2.073-5c0-1.931-0.691-3.587-2.073-4.969
			C901.764,727.965,900.108,727.274,898.177,727.274z"/>
		<path fill="#79757A" d="M924.79,723.707l14.084,12.682v-12.682h3.536v21.156v-0.03v0.061l-14.114-12.682v12.651h-3.506V723.707z"
			/>
		<rect x="948.372" y="732.944" fill="#79757A" width="13.271" height="2.92"/>
		<rect x="638.357" y="732.944" fill="#79757A" width="13.271" height="2.92"/>
	</g>
</g>
</svg>
